<svg id="Layer_1" data-name="Layer 1" xmlns="http://www.w3.org/2000/svg" xmlns:xlink="http://www.w3.org/1999/xlink" viewBox="0 0 100 100"><defs><style>.cls-1{fill:#1c96a3;}.cls-2{fill:url(#linear-gradient);}.cls-3{fill:url(#linear-gradient-2);}.cls-4{fill:url(#linear-gradient-3);}.cls-5{fill:url(#linear-gradient-4);}.cls-6{fill:url(#linear-gradient-5);}.cls-7{fill:#fff;}</style><linearGradient id="linear-gradient" x1="14.5" y1="38.79" x2="45.84" y2="38.79" gradientUnits="userSpaceOnUse"><stop offset="0" stop-color="#015b60"/><stop offset="0.4" stop-color="#56dce2"/><stop offset="0.89" stop-color="#09777c"/></linearGradient><linearGradient id="linear-gradient-2" x1="10.78" y1="74.39" x2="86.03" y2="74.39" xlink:href="#linear-gradient"/><linearGradient id="linear-gradient-3" x1="58.19" y1="36.18" x2="89.22" y2="36.18" xlink:href="#linear-gradient"/><linearGradient id="linear-gradient-4" x1="34.93" y1="62.76" x2="51.5" y2="62.76" xlink:href="#linear-gradient"/><linearGradient id="linear-gradient-5" x1="48.53" y1="55.03" x2="66.2" y2="55.03" xlink:href="#linear-gradient"/></defs><rect class="cls-1" width="100" height="100"/><path class="cls-2" d="M14.77,21.5a3.43,3.43,0,0,1,1.84,1.43l6.8,8.4c-3.46-5.51-7-11.27-7.72-17.73a65.57,65.57,0,0,1,5.86,7.64C19.11,16.12,16.6,10.64,17.24,5c1.43,1.55,2.06,3.66,2.8,5.64,3.43,9.07,10.07,16.49,16.57,23.69a12,12,0,0,1,3.1,4.79c.55,2.17-.13,4.57.78,6.62a4.74,4.74,0,0,0,5.35,2.57,4.21,4.21,0,0,1-5.33.18,6.62,6.62,0,0,1-2.41-5.08A18.84,18.84,0,0,0,38,39.29c-.43-1.71-1.76-3-3-4.28A85,85,0,0,1,20.51,15C23.22,23.2,28.24,30.37,33.2,37.4c-6.62-4.91-10.86-12.31-14.91-19.49C21,26.84,26.57,34.59,32,42.17c-5.39-4.38-9.61-10-13.76-15.57C21.62,34,26.59,40.42,31.51,46.83a163.44,163.44,0,0,1-14-12.2A51.46,51.46,0,0,0,28.88,49.1a8.45,8.45,0,0,1,2.58,3.07l-10.28-5.9c3,3.85,6.85,6.87,10.7,9.84l-8.78-3.2c2.35,3.61,6.23,5.87,10,8-2.26-.13-4.52-.37-6.76-.72,2.38,2.45,5.59,3.86,8.72,5.22a43.58,43.58,0,0,1-5.82.32,8.56,8.56,0,0,0,6.54,2.15l-2.93,2.83a6.24,6.24,0,0,0,4.83.35,4.42,4.42,0,0,1-3.79,1.51A3.21,3.21,0,0,1,31,71.19c-.52-1,.34-2.51,1.4-2.2A12.05,12.05,0,0,1,28,66.4c-.82-.73-1.29-1.21.07-1.45a15.17,15.17,0,0,1,3.08-.23,14.5,14.5,0,0,1-6.82-5.14,8,8,0,0,1,4.35-.19c-3.22-2.12-6.71-4.63-7.49-8.41A40.4,40.4,0,0,1,27,53.24c-3.19-2.63-6.48-5.37-8.28-9.09a60.76,60.76,0,0,1,8,4.37c-4.94-5.43-10-11.11-12.21-18.12L25.88,40.92l-9.1-13.83C15.67,25.4,14.51,23.51,14.77,21.5Z"/><path class="cls-3" d="M85.48,90.74a.69.69,0,0,0-.77-.14l-.94.41a48,48,0,0,1-5.34,1.82q-1.35.38-2.73.72c-.36.09-.87.15-1.35.25-.25,0-.51.09-.77.12-12,1.14-18.6-1.9-26-5.43L55.29,86c.8,3.27,3.85,5.63,7.1,6.5s6.71.47,10-.11c4.24-.74,8.65-1.9,11.76-4.89,1.19-1.13,2.2-2.77,1.73-4.34-.54-1.83-2.73-2.55-4.62-2.8-8.21-1.11-16.44,1.37-24.35,3.82C56.55,77,61.35,69.75,59,63c-.53-1.53-1.4-2.93-1.94-4.46a5.61,5.61,0,0,1,.13-4.71,2.64,2.64,0,0,0-1.63,2.59,8.79,8.79,0,0,0,.88,3.14A20.23,20.23,0,0,1,58.15,66c.38,6.38-4,12.47-3.07,18.8l-6.55,2.43a6.5,6.5,0,0,1-2,.51,6.74,6.74,0,0,1-2.79-.68c-8.14-3.28-16.65-6.72-25.38-5.85a10.34,10.34,0,0,0-5.58,1.91c-1.52,1.22-2.86,4-1.36,5.68a11.83,11.83,0,0,0,6,3.28c8.19,2.2,17,.9,25-1.86a7.64,7.64,0,0,1,3-.62,7.74,7.74,0,0,1,2.57.83c6.37,2.85,12.85,4.71,20.3,4.56a43.81,43.81,0,0,0,8.62-.9c1.29-.27,2.59-.43,3.86-.76a33.5,33.5,0,0,0,4.44-1.48.68.68,0,0,0,.22-1.11ZM61.84,84.1a86.59,86.59,0,0,1,11.53-1.89,27.13,27.13,0,0,1,7.74.09,5.31,5.31,0,0,1,1.35.43,1.57,1.57,0,0,1,.8,2.35A6.73,6.73,0,0,1,81,87.59a20.33,20.33,0,0,1-5.49,2.65A29.94,29.94,0,0,1,64.81,92a11.86,11.86,0,0,1-4.66-1c-2.24-1-3.2-2.86-3.18-5.48C58.62,85,60.22,84.47,61.84,84.1ZM43.75,89a58.28,58.28,0,0,1-8.37,2.49,33.15,33.15,0,0,1-7.81.8A26.79,26.79,0,0,1,18,90.5a15.28,15.28,0,0,1-2.83-1.61,4.16,4.16,0,0,1-1.66-2.38,2.61,2.61,0,0,1,1.32-3.24,8.52,8.52,0,0,1,3.45-1,29.63,29.63,0,0,1,12.51,1.44c3.51,1.21,7,2.61,10.42,3.94.87.33,1.73.72,2.59,1.08Z"/><path class="cls-4" d="M58.25,49.11c3.12-.35,5.37-3.32,6.26-6.34.59-2,.77-4.19,1.76-6.05a16.46,16.46,0,0,1,3.58-4.06c6.88-6.34,13.09-13.58,17.1-22a6.5,6.5,0,0,1,1.88-2.7,3.33,3.33,0,0,1,.33,2.29c-.78,6.93-4.47,13.19-8.72,18.71l6.38-6.29A7.08,7.08,0,0,1,86,25.46a51.55,51.55,0,0,1-7.45,11.47L85,31.72A4.13,4.13,0,0,1,84,34.06q-2.68,3.61-5.54,7.07l2-.69a2.17,2.17,0,0,1-.45,2,29.66,29.66,0,0,1-6.31,7.1l1.36.09a18.08,18.08,0,0,1-4.3,4.72c.39-.29,1,.19.94.68a1.91,1.91,0,0,1-.75,1.2l-2.54,2.42.85.39a8.27,8.27,0,0,1-3,3l1.31.47a8,8,0,0,1-3.28,1.94c.12-.13,1.51-1.56,1.55-1.53l-1-.72a9.22,9.22,0,0,0,3.07-2.72l-3.7,1.07a62.25,62.25,0,0,0,6.56-5.1l-4.31,1.43a56.48,56.48,0,0,0,6.17-5.61L67.8,53.52l6-5.42a20.83,20.83,0,0,0,4.75-5.43l-9.25,7.12L82.73,34.48,70.85,43.92c5-5.39,10.1-10.86,13.63-17.34L73.38,36.7c-.27.25-.79.46-.94.11A61.35,61.35,0,0,0,87.56,14c.24-.66.43-1.51-.11-2A75.5,75.5,0,0,1,71.82,33a22.82,22.82,0,0,0-4,4.31c-1.76,2.82-2,6.36-3.64,9.27a6.4,6.4,0,0,1-2.5,2.65,3.49,3.49,0,0,1-3.52-.06Z"/><path class="cls-5" d="M39.33,73.18a6.46,6.46,0,0,0-.62,2.4,1.63,1.63,0,0,0,.11.82,1.56,1.56,0,0,0,1.74.53,6.61,6.61,0,0,0,4.3-3.68,24,24,0,0,0,1.67-5.61,25.5,25.5,0,0,1,2-5.91,11.16,11.16,0,0,0,1.1-2.54c.43-2-.67-3.95-1.73-5.69-3.08,6.33-5.33,13.1-9.1,19a15.66,15.66,0,0,1-2.2,2.86c-.31.31-1,1.09-1.42,1.15s-.14-.19,0-.42.4-.53.59-.8a39.22,39.22,0,0,0,3.68-7.18q3.48-8.37,6.12-17c.44-1.44,1-3.06,2.36-3.7a2.18,2.18,0,0,0,.16,2A11.69,11.69,0,0,1,49,51.29a13.85,13.85,0,0,0,.47,2.52c.34.65,1,1,1.44,1.65a4,4,0,0,1,.46,3.08c-.52,2.85-2.48,5.24-3.27,8-.59,2.08-.51,4.34-1.38,6.33a10.13,10.13,0,0,1-4.31,4.43c-1.08.65-2.52,1.15-3.53.4a2.31,2.31,0,0,1-.75-2.31A5.27,5.27,0,0,1,39.33,73.18Z"/><path class="cls-6" d="M64.15,64.56c-.15.41.58.56.77,1s-.39.85-.68,1.26a2.3,2.3,0,0,0,.09,2.1l1.87,4.87A19.25,19.25,0,0,1,63,68a2.65,2.65,0,0,1-2.16.73L62.23,68l-.52-.71.75-.44a97.84,97.84,0,0,1-3.91-13.19c-.37-1.71-.71-3.53-1.9-4.81S53.32,46.76,52.9,45a1.08,1.08,0,0,1,.07-.81,2.31,2.31,0,0,1,.34-.36c1.16-1.07,1.13-2.88,1-4.46a1.94,1.94,0,0,0-.67-1.64,1.49,1.49,0,0,0-1.36.05,2.91,2.91,0,0,0-1.21,1.07c-.74,1.15-.59,2.63-.66,4a4,4,0,0,1-1,2.84c-.66.53-.46,0-.33-.5a3.2,3.2,0,0,0,0-1.71,5.45,5.45,0,0,1-.44-2.73c.13-.49.44-.92.53-1.42,0-.29,0-.59.06-.88a2.44,2.44,0,0,1,2.61-2.1c.44,0,.86.22,1.29.23a5.39,5.39,0,0,1,1.06,0A1.68,1.68,0,0,1,55.35,38a11,11,0,0,1,0,2c0,.91.17,1.81.17,2.72a3.26,3.26,0,0,1-.93,2.49c-.17.15-.38.28-.45.5s.17.71.46,1a13.1,13.1,0,0,0,2.7,1.86,2.65,2.65,0,0,1,.94.67,2.05,2.05,0,0,1,.32.76l4.37,15Zm-.58,1.81c.19-.36.4-.6.35-.69s-.35-.23-.53-.34l-.16.15Z"/><path class="cls-7" d="M14.77,21.5a3.43,3.43,0,0,1,1.84,1.43l6.8,8.4c-3.46-5.51-7-11.27-7.72-17.73a65.57,65.57,0,0,1,5.86,7.64C19.11,16.12,16.6,10.64,17.24,5c1.43,1.55,2.06,3.66,2.8,5.64,3.43,9.07,10.07,16.49,16.57,23.69a12,12,0,0,1,3.1,4.79c.55,2.17-.13,4.57.78,6.62a4.74,4.74,0,0,0,5.35,2.57,4.21,4.21,0,0,1-5.33.18,6.62,6.62,0,0,1-2.41-5.08A18.84,18.84,0,0,0,38,39.29c-.43-1.71-1.76-3-3-4.28A85,85,0,0,1,20.51,15C23.22,23.2,28.24,30.37,33.2,37.4c-6.62-4.91-10.86-12.31-14.91-19.49C21,26.84,26.57,34.59,32,42.17c-5.39-4.38-9.61-10-13.76-15.57C21.62,34,26.59,40.42,31.51,46.83a163.44,163.44,0,0,1-14-12.2A51.46,51.46,0,0,0,28.88,49.1a8.45,8.45,0,0,1,2.58,3.07l-10.28-5.9c3,3.85,6.85,6.87,10.7,9.84l-8.78-3.2c2.35,3.61,6.23,5.87,10,8-2.26-.13-4.52-.37-6.76-.72,2.38,2.45,5.59,3.86,8.72,5.22a43.58,43.58,0,0,1-5.82.32,8.56,8.56,0,0,0,6.54,2.15l-2.93,2.83a6.24,6.24,0,0,0,4.83.35,4.42,4.42,0,0,1-3.79,1.51A3.21,3.21,0,0,1,31,71.19c-.52-1,.34-2.51,1.4-2.2A12.05,12.05,0,0,1,28,66.4c-.82-.73-1.29-1.21.07-1.45a15.17,15.17,0,0,1,3.08-.23,14.5,14.5,0,0,1-6.82-5.14,8,8,0,0,1,4.35-.19c-3.22-2.12-6.71-4.63-7.49-8.41A40.4,40.4,0,0,1,27,53.24c-3.19-2.63-6.48-5.37-8.28-9.09a60.76,60.76,0,0,1,8,4.37c-4.94-5.43-10-11.11-12.21-18.12L25.88,40.92l-9.1-13.83C15.67,25.4,14.51,23.51,14.77,21.5Z"/><path class="cls-7" d="M85.48,90.74a.69.69,0,0,0-.77-.14l-.94.41a48,48,0,0,1-5.34,1.82q-1.35.38-2.73.72c-.36.09-.87.15-1.35.25-.25,0-.51.09-.77.12-12,1.14-18.6-1.9-26-5.43L55.29,86c.8,3.27,3.85,5.63,7.1,6.5s6.71.47,10-.11c4.24-.74,8.65-1.9,11.76-4.89,1.19-1.13,2.2-2.77,1.73-4.34-.54-1.83-2.73-2.55-4.62-2.8-8.21-1.11-16.44,1.37-24.35,3.82C56.55,77,61.35,69.75,59,63c-.53-1.53-1.4-2.93-1.94-4.46a5.61,5.61,0,0,1,.13-4.71,2.64,2.64,0,0,0-1.63,2.59,8.79,8.79,0,0,0,.88,3.14A20.23,20.23,0,0,1,58.15,66c.38,6.38-4,12.47-3.07,18.8l-6.55,2.43a6.5,6.5,0,0,1-2,.51,6.74,6.74,0,0,1-2.79-.68c-8.14-3.28-16.65-6.72-25.38-5.85a10.34,10.34,0,0,0-5.58,1.91c-1.52,1.22-2.86,4-1.36,5.68a11.83,11.83,0,0,0,6,3.28c8.19,2.2,17,.9,25-1.86a7.64,7.64,0,0,1,3-.62,7.74,7.74,0,0,1,2.57.83c6.37,2.85,12.85,4.71,20.3,4.56a43.81,43.81,0,0,0,8.62-.9c1.29-.27,2.59-.43,3.86-.76a33.5,33.5,0,0,0,4.44-1.48.68.68,0,0,0,.22-1.11ZM61.84,84.1a86.59,86.59,0,0,1,11.53-1.89,27.13,27.13,0,0,1,7.74.09,5.31,5.31,0,0,1,1.35.43,1.57,1.57,0,0,1,.8,2.35A6.73,6.73,0,0,1,81,87.59a20.33,20.33,0,0,1-5.49,2.65A29.94,29.94,0,0,1,64.81,92a11.86,11.86,0,0,1-4.66-1c-2.24-1-3.2-2.86-3.18-5.48C58.62,85,60.22,84.47,61.84,84.1ZM43.75,89a58.28,58.28,0,0,1-8.37,2.49,33.15,33.15,0,0,1-7.81.8A26.79,26.79,0,0,1,18,90.5a15.28,15.28,0,0,1-2.83-1.61,4.16,4.16,0,0,1-1.66-2.38,2.61,2.61,0,0,1,1.32-3.24,8.52,8.52,0,0,1,3.45-1,29.63,29.63,0,0,1,12.51,1.44c3.51,1.21,7,2.61,10.42,3.94.87.33,1.73.72,2.59,1.08Z"/><path class="cls-7" d="M58.25,49.11c3.12-.35,5.37-3.32,6.26-6.34.59-2,.77-4.19,1.76-6.05a16.46,16.46,0,0,1,3.58-4.06c6.88-6.34,13.09-13.58,17.1-22a6.5,6.5,0,0,1,1.88-2.7,3.33,3.33,0,0,1,.33,2.29c-.78,6.93-4.47,13.19-8.72,18.71l6.38-6.29A7.08,7.08,0,0,1,86,25.46a51.55,51.55,0,0,1-7.45,11.47L85,31.72A4.13,4.13,0,0,1,84,34.06q-2.68,3.61-5.54,7.07l2-.69a2.17,2.17,0,0,1-.45,2,29.66,29.66,0,0,1-6.31,7.1l1.36.09a18.08,18.08,0,0,1-4.3,4.72c.39-.29,1,.19.94.68a1.91,1.91,0,0,1-.75,1.2l-2.54,2.42.85.39a8.27,8.27,0,0,1-3,3l1.31.47a8,8,0,0,1-3.28,1.94c.12-.13,1.51-1.56,1.55-1.53l-1-.72a9.22,9.22,0,0,0,3.07-2.72l-3.7,1.07a62.25,62.25,0,0,0,6.56-5.1l-4.31,1.43a56.48,56.48,0,0,0,6.17-5.61L67.8,53.52l6-5.42a20.83,20.83,0,0,0,4.75-5.43l-9.25,7.12L82.73,34.48,70.85,43.92c5-5.39,10.1-10.86,13.63-17.34L73.38,36.7c-.27.25-.79.46-.94.11A61.35,61.35,0,0,0,87.56,14c.24-.66.43-1.51-.11-2A75.5,75.5,0,0,1,71.82,33a22.82,22.82,0,0,0-4,4.31c-1.76,2.82-2,6.36-3.64,9.27a6.4,6.4,0,0,1-2.5,2.65,3.49,3.49,0,0,1-3.52-.06Z"/><path class="cls-7" d="M39.33,73.18a6.46,6.46,0,0,0-.62,2.4,1.63,1.63,0,0,0,.11.82,1.56,1.56,0,0,0,1.74.53,6.61,6.61,0,0,0,4.3-3.68,24,24,0,0,0,1.67-5.61,25.5,25.5,0,0,1,2-5.91,11.16,11.16,0,0,0,1.1-2.54c.43-2-.67-3.95-1.73-5.69-3.08,6.33-5.33,13.1-9.1,19a15.66,15.66,0,0,1-2.2,2.86c-.31.31-1,1.09-1.42,1.15s-.14-.19,0-.42.4-.53.59-.8a39.22,39.22,0,0,0,3.68-7.18q3.48-8.37,6.12-17c.44-1.44,1-3.06,2.36-3.7a2.18,2.18,0,0,0,.16,2A11.69,11.69,0,0,1,49,51.29a13.85,13.85,0,0,0,.47,2.52c.34.65,1,1,1.44,1.65a4,4,0,0,1,.46,3.08c-.52,2.85-2.48,5.24-3.27,8-.59,2.08-.51,4.34-1.38,6.33a10.13,10.13,0,0,1-4.31,4.43c-1.08.65-2.52,1.15-3.53.4a2.31,2.31,0,0,1-.75-2.31A5.27,5.27,0,0,1,39.33,73.18Z"/><path class="cls-7" d="M64.15,64.56c-.15.41.58.56.77,1s-.39.85-.68,1.26a2.3,2.3,0,0,0,.09,2.1l1.87,4.87A19.25,19.25,0,0,1,63,68a2.65,2.65,0,0,1-2.16.73L62.23,68l-.52-.71.75-.44a97.84,97.84,0,0,1-3.91-13.19c-.37-1.71-.71-3.53-1.9-4.81S53.32,46.76,52.9,45a1.08,1.08,0,0,1,.07-.81,2.31,2.31,0,0,1,.34-.36c1.16-1.07,1.13-2.88,1-4.46a1.94,1.94,0,0,0-.67-1.64,1.49,1.49,0,0,0-1.36.05,2.91,2.91,0,0,0-1.21,1.07c-.74,1.15-.59,2.63-.66,4a4,4,0,0,1-1,2.84c-.66.53-.46,0-.33-.5a3.2,3.2,0,0,0,0-1.71,5.45,5.45,0,0,1-.44-2.73c.13-.49.44-.92.53-1.42,0-.29,0-.59.06-.88a2.44,2.44,0,0,1,2.61-2.1c.44,0,.86.22,1.29.23a5.39,5.39,0,0,1,1.06,0A1.68,1.68,0,0,1,55.35,38a11,11,0,0,1,0,2c0,.91.17,1.81.17,2.72a3.26,3.26,0,0,1-.93,2.49c-.17.15-.38.28-.45.5s.17.71.46,1a13.1,13.1,0,0,0,2.7,1.86,2.65,2.65,0,0,1,.94.67,2.05,2.05,0,0,1,.32.76l4.37,15Zm-.58,1.81c.19-.36.4-.6.35-.69s-.35-.23-.53-.34l-.16.15Z"/></svg>